<svg xmlns="http://www.w3.org/2000/svg" version="1.1" xmlns:xlink="http://www.w3.org/1999/xlink" xmlns:svgjs="http://svgjs.dev/svgjs" width="1440" height="560" preserveAspectRatio="none" viewBox="0 0 1440 560"><g mask="url(&quot;#SvgjsMask1003&quot;)" fill="none"><rect width="1440" height="560" x="0" y="0" fill="#0e2a47"></rect><path d="M119.17 317.25L184.13 354.75L184.13 429.75L119.17 467.25L54.22 429.75L54.22 354.75zM54.22 429.75L119.17 467.25L119.17 542.25L54.22 579.75L-10.73 542.25L-10.73 467.25zM184.13 -20.25L249.08 17.25L249.08 92.25L184.13 129.75L119.17 92.25L119.17 17.25zM249.08 92.25L314.03 129.75L314.03 204.75L249.08 242.25L184.13 204.75L184.13 129.75zM184.13 204.75L249.08 242.25L249.08 317.25L184.13 354.75L119.17 317.25L119.17 242.25zM249.08 542.25L314.03 579.75L314.03 654.75L249.08 692.25L184.13 654.75L184.13 579.75zM314.03 204.75L378.99 242.25L378.99 317.25L314.03 354.75L249.08 317.25L249.08 242.25zM378.99 317.25L443.94 354.75L443.94 429.75L378.99 467.25L314.03 429.75L314.03 354.75zM508.9 92.25L573.85 129.75L573.85 204.75L508.9 242.25L443.94 204.75L443.94 129.75zM443.94 204.75L508.9 242.25L508.9 317.25L443.94 354.75L378.99 317.25L378.99 242.25zM443.94 429.75L508.9 467.25L508.9 542.25L443.94 579.75L378.99 542.25L378.99 467.25zM573.85 -20.25L638.8 17.25L638.8 92.25L573.85 129.75L508.9 92.25L508.9 17.25zM638.8 92.25L703.76 129.75L703.76 204.75L638.8 242.25L573.85 204.75L573.85 129.75zM573.85 429.75L638.8 467.25L638.8 542.25L573.85 579.75L508.9 542.25L508.9 467.25zM703.76 -20.25L768.71 17.25L768.71 92.25L703.76 129.75L638.8 92.25L638.8 17.25zM703.76 429.75L768.71 467.25L768.71 542.25L703.76 579.75L638.8 542.25L638.8 467.25zM768.71 542.25L833.67 579.75L833.67 654.75L768.71 692.25L703.76 654.75L703.76 579.75zM833.66 -20.25L898.62 17.25L898.62 92.25L833.66 129.75L768.71 92.25L768.71 17.25zM833.66 204.75L898.62 242.25L898.62 317.25L833.66 354.75L768.71 317.25L768.71 242.25zM833.66 429.75L898.62 467.25L898.62 542.25L833.66 579.75L768.71 542.25L768.71 467.25zM963.57 -20.25L1028.53 17.25L1028.53 92.25L963.57 129.75L898.62 92.25L898.62 17.25zM1028.53 92.25L1093.48 129.75L1093.48 204.75L1028.53 242.25L963.57 204.75L963.57 129.75zM963.57 429.75L1028.53 467.25L1028.53 542.25L963.57 579.75L898.62 542.25L898.62 467.25zM1028.53 542.25L1093.48 579.75L1093.48 654.75L1028.53 692.25L963.57 654.75L963.57 579.75zM1093.48 -20.25L1158.43 17.25L1158.43 92.25L1093.48 129.75L1028.53 92.25L1028.53 17.25zM1158.43 92.25L1223.39 129.75L1223.39 204.75L1158.43 242.25L1093.48 204.75L1093.48 129.75zM1093.48 204.75L1158.43 242.25L1158.43 317.25L1093.48 354.75L1028.53 317.25L1028.53 242.25zM1223.39 -20.25L1288.34 17.25L1288.34 92.25L1223.39 129.75L1158.43 92.25L1158.43 17.25zM1223.39 204.75L1288.34 242.25L1288.34 317.25L1223.39 354.75L1158.43 317.25L1158.43 242.25zM1418.25 92.25L1483.2 129.75L1483.2 204.75L1418.25 242.25L1353.3 204.75L1353.3 129.75zM1418.25 542.25L1483.2 579.75L1483.2 654.75L1418.25 692.25L1353.3 654.75L1353.3 579.75z" stroke="#03305d" stroke-width="2"></path><path d="M111.67 317.25 a7.5 7.5 0 1 0 15 0 a7.5 7.5 0 1 0 -15 0zM176.63 354.75 a7.5 7.5 0 1 0 15 0 a7.5 7.5 0 1 0 -15 0zM176.63 429.75 a7.5 7.5 0 1 0 15 0 a7.5 7.5 0 1 0 -15 0zM111.67 467.25 a7.5 7.5 0 1 0 15 0 a7.5 7.5 0 1 0 -15 0zM46.72 429.75 a7.5 7.5 0 1 0 15 0 a7.5 7.5 0 1 0 -15 0zM46.72 354.75 a7.5 7.5 0 1 0 15 0 a7.5 7.5 0 1 0 -15 0zM111.67 542.25 a7.5 7.5 0 1 0 15 0 a7.5 7.5 0 1 0 -15 0zM46.72 579.75 a7.5 7.5 0 1 0 15 0 a7.5 7.5 0 1 0 -15 0zM-18.23 542.25 a7.5 7.5 0 1 0 15 0 a7.5 7.5 0 1 0 -15 0zM-18.23 467.25 a7.5 7.5 0 1 0 15 0 a7.5 7.5 0 1 0 -15 0zM176.63 -20.25 a7.5 7.5 0 1 0 15 0 a7.5 7.5 0 1 0 -15 0zM241.58 17.25 a7.5 7.5 0 1 0 15 0 a7.5 7.5 0 1 0 -15 0zM241.58 92.25 a7.5 7.5 0 1 0 15 0 a7.5 7.5 0 1 0 -15 0zM176.63 129.75 a7.5 7.5 0 1 0 15 0 a7.5 7.5 0 1 0 -15 0zM111.67 92.25 a7.5 7.5 0 1 0 15 0 a7.5 7.5 0 1 0 -15 0zM111.67 17.25 a7.5 7.5 0 1 0 15 0 a7.5 7.5 0 1 0 -15 0zM306.53 129.75 a7.5 7.5 0 1 0 15 0 a7.5 7.5 0 1 0 -15 0zM306.53 204.75 a7.5 7.5 0 1 0 15 0 a7.5 7.5 0 1 0 -15 0zM241.58 242.25 a7.5 7.5 0 1 0 15 0 a7.5 7.5 0 1 0 -15 0zM176.63 204.75 a7.5 7.5 0 1 0 15 0 a7.5 7.5 0 1 0 -15 0zM241.58 317.25 a7.5 7.5 0 1 0 15 0 a7.5 7.5 0 1 0 -15 0zM111.67 242.25 a7.5 7.5 0 1 0 15 0 a7.5 7.5 0 1 0 -15 0zM241.58 542.25 a7.5 7.5 0 1 0 15 0 a7.5 7.5 0 1 0 -15 0zM306.53 579.75 a7.5 7.5 0 1 0 15 0 a7.5 7.5 0 1 0 -15 0zM306.53 654.75 a7.5 7.5 0 1 0 15 0 a7.5 7.5 0 1 0 -15 0zM241.58 692.25 a7.5 7.5 0 1 0 15 0 a7.5 7.5 0 1 0 -15 0zM176.63 654.75 a7.5 7.5 0 1 0 15 0 a7.5 7.5 0 1 0 -15 0zM176.63 579.75 a7.5 7.5 0 1 0 15 0 a7.5 7.5 0 1 0 -15 0zM371.49 242.25 a7.5 7.5 0 1 0 15 0 a7.5 7.5 0 1 0 -15 0zM371.49 317.25 a7.5 7.5 0 1 0 15 0 a7.5 7.5 0 1 0 -15 0zM306.53 354.75 a7.5 7.5 0 1 0 15 0 a7.5 7.5 0 1 0 -15 0zM436.44 354.75 a7.5 7.5 0 1 0 15 0 a7.5 7.5 0 1 0 -15 0zM436.44 429.75 a7.5 7.5 0 1 0 15 0 a7.5 7.5 0 1 0 -15 0zM371.49 467.25 a7.5 7.5 0 1 0 15 0 a7.5 7.5 0 1 0 -15 0zM306.53 429.75 a7.5 7.5 0 1 0 15 0 a7.5 7.5 0 1 0 -15 0zM501.4 92.25 a7.5 7.5 0 1 0 15 0 a7.5 7.5 0 1 0 -15 0zM566.35 129.75 a7.5 7.5 0 1 0 15 0 a7.5 7.5 0 1 0 -15 0zM566.35 204.75 a7.5 7.5 0 1 0 15 0 a7.5 7.5 0 1 0 -15 0zM501.4 242.25 a7.5 7.5 0 1 0 15 0 a7.5 7.5 0 1 0 -15 0zM436.44 204.75 a7.5 7.5 0 1 0 15 0 a7.5 7.5 0 1 0 -15 0zM436.44 129.75 a7.5 7.5 0 1 0 15 0 a7.5 7.5 0 1 0 -15 0zM501.4 317.25 a7.5 7.5 0 1 0 15 0 a7.5 7.5 0 1 0 -15 0zM501.4 467.25 a7.5 7.5 0 1 0 15 0 a7.5 7.5 0 1 0 -15 0zM501.4 542.25 a7.5 7.5 0 1 0 15 0 a7.5 7.5 0 1 0 -15 0zM436.44 579.75 a7.5 7.5 0 1 0 15 0 a7.5 7.5 0 1 0 -15 0zM371.49 542.25 a7.5 7.5 0 1 0 15 0 a7.5 7.5 0 1 0 -15 0zM566.35 -20.25 a7.5 7.5 0 1 0 15 0 a7.5 7.5 0 1 0 -15 0zM631.3 17.25 a7.5 7.5 0 1 0 15 0 a7.5 7.5 0 1 0 -15 0zM631.3 92.25 a7.5 7.5 0 1 0 15 0 a7.5 7.5 0 1 0 -15 0zM501.4 17.25 a7.5 7.5 0 1 0 15 0 a7.5 7.5 0 1 0 -15 0zM696.26 129.75 a7.5 7.5 0 1 0 15 0 a7.5 7.5 0 1 0 -15 0zM696.26 204.75 a7.5 7.5 0 1 0 15 0 a7.5 7.5 0 1 0 -15 0zM631.3 242.25 a7.5 7.5 0 1 0 15 0 a7.5 7.5 0 1 0 -15 0zM566.35 429.75 a7.5 7.5 0 1 0 15 0 a7.5 7.5 0 1 0 -15 0zM631.3 467.25 a7.5 7.5 0 1 0 15 0 a7.5 7.5 0 1 0 -15 0zM631.3 542.25 a7.5 7.5 0 1 0 15 0 a7.5 7.5 0 1 0 -15 0zM566.35 579.75 a7.5 7.5 0 1 0 15 0 a7.5 7.5 0 1 0 -15 0zM696.26 -20.25 a7.5 7.5 0 1 0 15 0 a7.5 7.5 0 1 0 -15 0zM761.21 17.25 a7.5 7.5 0 1 0 15 0 a7.5 7.5 0 1 0 -15 0zM761.21 92.25 a7.5 7.5 0 1 0 15 0 a7.5 7.5 0 1 0 -15 0zM696.26 429.75 a7.5 7.5 0 1 0 15 0 a7.5 7.5 0 1 0 -15 0zM761.21 467.25 a7.5 7.5 0 1 0 15 0 a7.5 7.5 0 1 0 -15 0zM761.21 542.25 a7.5 7.5 0 1 0 15 0 a7.5 7.5 0 1 0 -15 0zM696.26 579.75 a7.5 7.5 0 1 0 15 0 a7.5 7.5 0 1 0 -15 0zM826.17 579.75 a7.5 7.5 0 1 0 15 0 a7.5 7.5 0 1 0 -15 0zM826.17 654.75 a7.5 7.5 0 1 0 15 0 a7.5 7.5 0 1 0 -15 0zM761.21 692.25 a7.5 7.5 0 1 0 15 0 a7.5 7.5 0 1 0 -15 0zM696.26 654.75 a7.5 7.5 0 1 0 15 0 a7.5 7.5 0 1 0 -15 0zM826.16 -20.25 a7.5 7.5 0 1 0 15 0 a7.5 7.5 0 1 0 -15 0zM891.12 17.25 a7.5 7.5 0 1 0 15 0 a7.5 7.5 0 1 0 -15 0zM891.12 92.25 a7.5 7.5 0 1 0 15 0 a7.5 7.5 0 1 0 -15 0zM826.16 129.75 a7.5 7.5 0 1 0 15 0 a7.5 7.5 0 1 0 -15 0zM826.16 204.75 a7.5 7.5 0 1 0 15 0 a7.5 7.5 0 1 0 -15 0zM891.12 242.25 a7.5 7.5 0 1 0 15 0 a7.5 7.5 0 1 0 -15 0zM891.12 317.25 a7.5 7.5 0 1 0 15 0 a7.5 7.5 0 1 0 -15 0zM826.16 354.75 a7.5 7.5 0 1 0 15 0 a7.5 7.5 0 1 0 -15 0zM761.21 317.25 a7.5 7.5 0 1 0 15 0 a7.5 7.5 0 1 0 -15 0zM761.21 242.25 a7.5 7.5 0 1 0 15 0 a7.5 7.5 0 1 0 -15 0zM826.16 429.75 a7.5 7.5 0 1 0 15 0 a7.5 7.5 0 1 0 -15 0zM891.12 467.25 a7.5 7.5 0 1 0 15 0 a7.5 7.5 0 1 0 -15 0zM891.12 542.25 a7.5 7.5 0 1 0 15 0 a7.5 7.5 0 1 0 -15 0zM826.16 579.75 a7.5 7.5 0 1 0 15 0 a7.5 7.5 0 1 0 -15 0zM956.07 -20.25 a7.5 7.5 0 1 0 15 0 a7.5 7.5 0 1 0 -15 0zM1021.03 17.25 a7.5 7.5 0 1 0 15 0 a7.5 7.5 0 1 0 -15 0zM1021.03 92.25 a7.5 7.5 0 1 0 15 0 a7.5 7.5 0 1 0 -15 0zM956.07 129.75 a7.5 7.5 0 1 0 15 0 a7.5 7.5 0 1 0 -15 0zM1085.98 129.75 a7.5 7.5 0 1 0 15 0 a7.5 7.5 0 1 0 -15 0zM1085.98 204.75 a7.5 7.5 0 1 0 15 0 a7.5 7.5 0 1 0 -15 0zM1021.03 242.25 a7.5 7.5 0 1 0 15 0 a7.5 7.5 0 1 0 -15 0zM956.07 204.75 a7.5 7.5 0 1 0 15 0 a7.5 7.5 0 1 0 -15 0zM956.07 429.75 a7.5 7.5 0 1 0 15 0 a7.5 7.5 0 1 0 -15 0zM1021.03 467.25 a7.5 7.5 0 1 0 15 0 a7.5 7.5 0 1 0 -15 0zM1021.03 542.25 a7.5 7.5 0 1 0 15 0 a7.5 7.5 0 1 0 -15 0zM956.07 579.75 a7.5 7.5 0 1 0 15 0 a7.5 7.5 0 1 0 -15 0zM1085.98 579.75 a7.5 7.5 0 1 0 15 0 a7.5 7.5 0 1 0 -15 0zM1085.98 654.75 a7.5 7.5 0 1 0 15 0 a7.5 7.5 0 1 0 -15 0zM1021.03 692.25 a7.5 7.5 0 1 0 15 0 a7.5 7.5 0 1 0 -15 0zM956.07 654.75 a7.5 7.5 0 1 0 15 0 a7.5 7.5 0 1 0 -15 0zM1085.98 -20.25 a7.5 7.5 0 1 0 15 0 a7.5 7.5 0 1 0 -15 0zM1150.93 17.25 a7.5 7.5 0 1 0 15 0 a7.5 7.5 0 1 0 -15 0zM1150.93 92.25 a7.5 7.5 0 1 0 15 0 a7.5 7.5 0 1 0 -15 0zM1215.89 129.75 a7.5 7.5 0 1 0 15 0 a7.5 7.5 0 1 0 -15 0zM1215.89 204.75 a7.5 7.5 0 1 0 15 0 a7.5 7.5 0 1 0 -15 0zM1150.93 242.25 a7.5 7.5 0 1 0 15 0 a7.5 7.5 0 1 0 -15 0zM1150.93 317.25 a7.5 7.5 0 1 0 15 0 a7.5 7.5 0 1 0 -15 0zM1085.98 354.75 a7.5 7.5 0 1 0 15 0 a7.5 7.5 0 1 0 -15 0zM1021.03 317.25 a7.5 7.5 0 1 0 15 0 a7.5 7.5 0 1 0 -15 0zM1215.89 -20.25 a7.5 7.5 0 1 0 15 0 a7.5 7.5 0 1 0 -15 0zM1280.84 17.25 a7.5 7.5 0 1 0 15 0 a7.5 7.5 0 1 0 -15 0zM1280.84 92.25 a7.5 7.5 0 1 0 15 0 a7.5 7.5 0 1 0 -15 0zM1280.84 242.25 a7.5 7.5 0 1 0 15 0 a7.5 7.5 0 1 0 -15 0zM1280.84 317.25 a7.5 7.5 0 1 0 15 0 a7.5 7.5 0 1 0 -15 0zM1215.89 354.75 a7.5 7.5 0 1 0 15 0 a7.5 7.5 0 1 0 -15 0zM1410.75 92.25 a7.5 7.5 0 1 0 15 0 a7.5 7.5 0 1 0 -15 0zM1475.7 129.75 a7.5 7.5 0 1 0 15 0 a7.5 7.5 0 1 0 -15 0zM1475.7 204.75 a7.5 7.5 0 1 0 15 0 a7.5 7.5 0 1 0 -15 0zM1410.75 242.25 a7.5 7.5 0 1 0 15 0 a7.5 7.5 0 1 0 -15 0zM1345.8 204.75 a7.5 7.5 0 1 0 15 0 a7.5 7.5 0 1 0 -15 0zM1345.8 129.75 a7.5 7.5 0 1 0 15 0 a7.5 7.5 0 1 0 -15 0zM1410.75 542.25 a7.5 7.5 0 1 0 15 0 a7.5 7.5 0 1 0 -15 0zM1475.7 579.75 a7.5 7.5 0 1 0 15 0 a7.5 7.5 0 1 0 -15 0zM1475.7 654.75 a7.5 7.5 0 1 0 15 0 a7.5 7.5 0 1 0 -15 0zM1410.75 692.25 a7.5 7.5 0 1 0 15 0 a7.5 7.5 0 1 0 -15 0zM1345.8 654.75 a7.5 7.5 0 1 0 15 0 a7.5 7.5 0 1 0 -15 0zM1345.8 579.75 a7.5 7.5 0 1 0 15 0 a7.5 7.5 0 1 0 -15 0z" fill="#03305d"></path><path d="M215.69 100.12L258.99 125.12L258.99 175.12L215.69 200.12L172.39 175.12L172.39 125.12zM302.3 100.12L345.6 125.12L345.6 175.12L302.3 200.12L258.99 175.12L258.99 125.12zM345.6 325.12L388.9 350.12L388.9 400.12L345.6 425.12L302.3 400.12L302.3 350.12zM432.2 175.12L475.51 200.12L475.51 250.12L432.2 275.12L388.9 250.12L388.9 200.12zM388.9 400.12L432.2 425.12L432.2 475.12L388.9 500.12L345.6 475.12L345.6 425.12zM518.81 475.12L562.11 500.12L562.11 550.12L518.81 575.12L475.51 550.12L475.51 500.12zM605.41 175.12L648.72 200.12L648.72 250.12L605.41 275.12L562.11 250.12L562.11 200.12zM648.72 400.12L692.02 425.12L692.02 475.12L648.72 500.12L605.41 475.12L605.41 425.12zM778.62 25.12L821.93 50.12L821.93 100.12L778.62 125.12L735.32 100.12L735.32 50.12zM865.23 175.12L908.53 200.12L908.53 250.12L865.23 275.12L821.93 250.12L821.93 200.12zM865.23 325.12L908.53 350.12L908.53 400.12L865.23 425.12L821.93 400.12L821.93 350.12zM908.53 -49.88L951.83 -24.88L951.83 25.12L908.53 50.12L865.23 25.12L865.23 -24.88zM995.14 -49.88L1038.44 -24.88L1038.44 25.12L995.14 50.12L951.83 25.12L951.83 -24.88zM1081.74 -49.88L1125.04 -24.88L1125.04 25.12L1081.74 50.12L1038.44 25.12L1038.44 -24.88zM1125.04 325.12L1168.35 350.12L1168.35 400.12L1125.04 425.12L1081.74 400.12L1081.74 350.12zM1081.74 400.12L1125.04 425.12L1125.04 475.12L1081.74 500.12L1038.44 475.12L1038.44 425.12zM1298.25 475.12L1341.56 500.12L1341.56 550.12L1298.25 575.12L1254.95 550.12L1254.95 500.12zM1341.56 100.12L1384.86 125.12L1384.86 175.12L1341.56 200.12L1298.25 175.12L1298.25 125.12zM1384.86 325.12L1428.16 350.12L1428.16 400.12L1384.86 425.12L1341.56 400.12L1341.56 350.12zM1341.56 400.12L1384.86 425.12L1384.86 475.12L1341.56 500.12L1298.25 475.12L1298.25 425.12zM1428.16 400.12L1471.46 425.12L1471.46 475.12L1428.16 500.12L1384.86 475.12L1384.86 425.12z" stroke="rgba(6, 80, 156, 0.93)" stroke-width="2"></path></g><defs><mask id="SvgjsMask1003"><rect width="1440" height="560" fill="#ffffff"></rect></mask></defs></svg>